<?xml version="1.0" encoding="utf-8" standalone="no"?>
<!DOCTYPE svg PUBLIC "-//W3C//DTD SVG 1.1//EN"
  "http://www.w3.org/Graphics/SVG/1.1/DTD/svg11.dtd">
<svg xmlns:xlink="http://www.w3.org/1999/xlink" width="460.8pt" height="345.6pt" viewBox="0 0 460.8 345.6" xmlns="http://www.w3.org/2000/svg" version="1.1">
 <metadata>
  <rdf:RDF xmlns:dc="http://purl.org/dc/elements/1.1/" xmlns:cc="http://creativecommons.org/ns#" xmlns:rdf="http://www.w3.org/1999/02/22-rdf-syntax-ns#">
   <cc:Work>
    <dc:type rdf:resource="http://purl.org/dc/dcmitype/StillImage"/>
    <dc:date>2024-07-26T12:25:26.516181</dc:date>
    <dc:format>image/svg+xml</dc:format>
    <dc:creator>
     <cc:Agent>
      <dc:title>Matplotlib v3.8.4, https://matplotlib.org/</dc:title>
     </cc:Agent>
    </dc:creator>
   </cc:Work>
  </rdf:RDF>
 </metadata>
 <defs>
  <style type="text/css">*{stroke-linejoin: round; stroke-linecap: butt}</style>
 </defs>
 <g id="figure_1">
  <g id="patch_1">
   <path d="M 0 345.6 
L 460.8 345.6 
L 460.8 0 
L 0 0 
L 0 345.6 
z
" style="fill: none"/>
  </g>
  <g id="axes_1">
   <g id="patch_2">
    <path d="M 57.6 307.584 
L 414.72 307.584 
L 414.72 41.472 
L 57.6 41.472 
L 57.6 307.584 
z
" style="fill: none"/>
   </g>
   <g id="PathCollection_1">
    <defs>
     <path id="m5c179bd2f6" d="M 0 1.5 
C 0.397805 1.5 0.77937 1.341951 1.06066 1.06066 
C 1.341951 0.77937 1.5 0.397805 1.5 0 
C 1.5 -0.397805 1.341951 -0.77937 1.06066 -1.06066 
C 0.77937 -1.341951 0.397805 -1.5 0 -1.5 
C -0.397805 -1.5 -0.77937 -1.341951 -1.06066 -1.06066 
C -1.341951 -0.77937 -1.5 -0.397805 -1.5 0 
C -1.5 0.397805 -1.341951 0.77937 -1.06066 1.06066 
C -0.77937 1.341951 -0.397805 1.5 0 1.5 
z
" style="stroke: #4682b4"/>
    </defs>
    <g clip-path="url(#pa308dbfcea)">
     <use xlink:href="#m5c179bd2f6" x="73.832727" y="161.758912" style="fill: #4682b4; stroke: #4682b4"/>
     <use xlink:href="#m5c179bd2f6" x="77.112069" y="168.959118" style="fill: #4682b4; stroke: #4682b4"/>
     <use xlink:href="#m5c179bd2f6" x="80.391412" y="176.441703" style="fill: #4682b4; stroke: #4682b4"/>
     <use xlink:href="#m5c179bd2f6" x="83.670734" y="182.746864" style="fill: #4682b4; stroke: #4682b4"/>
     <use xlink:href="#m5c179bd2f6" x="86.950077" y="186.580073" style="fill: #4682b4; stroke: #4682b4"/>
     <use xlink:href="#m5c179bd2f6" x="90.229419" y="186.944957" style="fill: #4682b4; stroke: #4682b4"/>
     <use xlink:href="#m5c179bd2f6" x="93.508761" y="183.245767" style="fill: #4682b4; stroke: #4682b4"/>
     <use xlink:href="#m5c179bd2f6" x="96.788103" y="175.348143" style="fill: #4682b4; stroke: #4682b4"/>
     <use xlink:href="#m5c179bd2f6" x="100.067445" y="163.592088" style="fill: #4682b4; stroke: #4682b4"/>
     <use xlink:href="#m5c179bd2f6" x="103.346768" y="148.755989" style="fill: #4682b4; stroke: #4682b4"/>
     <use xlink:href="#m5c179bd2f6" x="106.62611" y="131.974677" style="fill: #4682b4; stroke: #4682b4"/>
     <use xlink:href="#m5c179bd2f6" x="109.905452" y="114.621531" style="fill: #4682b4; stroke: #4682b4"/>
     <use xlink:href="#m5c179bd2f6" x="113.184795" y="98.16497" style="fill: #4682b4; stroke: #4682b4"/>
     <use xlink:href="#m5c179bd2f6" x="116.464137" y="84.015555" style="fill: #4682b4; stroke: #4682b4"/>
     <use xlink:href="#m5c179bd2f6" x="119.743479" y="73.378974" style="fill: #4682b4; stroke: #4682b4"/>
     <use xlink:href="#m5c179bd2f6" x="123.022802" y="67.130268" style="fill: #4682b4; stroke: #4682b4"/>
     <use xlink:href="#m5c179bd2f6" x="126.302144" y="65.722231" style="fill: #4682b4; stroke: #4682b4"/>
     <use xlink:href="#m5c179bd2f6" x="129.581486" y="69.137732" style="fill: #4682b4; stroke: #4682b4"/>
     <use xlink:href="#m5c179bd2f6" x="132.860828" y="76.890458" style="fill: #4682b4; stroke: #4682b4"/>
     <use xlink:href="#m5c179bd2f6" x="136.14017" y="88.074452" style="fill: #4682b4; stroke: #4682b4"/>
     <use xlink:href="#m5c179bd2f6" x="139.419513" y="101.456963" style="fill: #4682b4; stroke: #4682b4"/>
     <use xlink:href="#m5c179bd2f6" x="142.698835" y="115.605198" style="fill: #4682b4; stroke: #4682b4"/>
     <use xlink:href="#m5c179bd2f6" x="145.978178" y="129.034119" style="fill: #4682b4; stroke: #4682b4"/>
     <use xlink:href="#m5c179bd2f6" x="149.25752" y="140.358839" style="fill: #4682b4; stroke: #4682b4"/>
     <use xlink:href="#m5c179bd2f6" x="152.536862" y="148.43749" style="fill: #4682b4; stroke: #4682b4"/>
     <use xlink:href="#m5c179bd2f6" x="155.816199" y="152.488496" style="fill: #4682b4; stroke: #4682b4"/>
     <use xlink:href="#m5c179bd2f6" x="159.095541" y="152.170637" style="fill: #4682b4; stroke: #4682b4"/>
     <use xlink:href="#m5c179bd2f6" x="162.374874" y="147.617437" style="fill: #4682b4; stroke: #4682b4"/>
     <use xlink:href="#m5c179bd2f6" x="165.654211" y="139.422444" style="fill: #4682b4; stroke: #4682b4"/>
     <use xlink:href="#m5c179bd2f6" x="168.933553" y="128.576832" style="fill: #4682b4; stroke: #4682b4"/>
     <use xlink:href="#m5c179bd2f6" x="172.212895" y="116.365895" style="fill: #4682b4; stroke: #4682b4"/>
     <use xlink:href="#m5c179bd2f6" x="175.492233" y="104.234953" style="fill: #4682b4; stroke: #4682b4"/>
     <use xlink:href="#m5c179bd2f6" x="178.771565" y="93.63876" style="fill: #4682b4; stroke: #4682b4"/>
     <use xlink:href="#m5c179bd2f6" x="182.050907" y="85.889889" style="fill: #4682b4; stroke: #4682b4"/>
     <use xlink:href="#m5c179bd2f6" x="185.330245" y="82.021985" style="fill: #4682b4; stroke: #4682b4"/>
     <use xlink:href="#m5c179bd2f6" x="188.609587" y="82.681687" style="fill: #4682b4; stroke: #4682b4"/>
     <use xlink:href="#m5c179bd2f6" x="191.888929" y="88.060822" style="fill: #4682b4; stroke: #4682b4"/>
     <use xlink:href="#m5c179bd2f6" x="195.168266" y="97.875534" style="fill: #4682b4; stroke: #4682b4"/>
     <use xlink:href="#m5c179bd2f6" x="198.447599" y="111.394866" style="fill: #4682b4; stroke: #4682b4"/>
     <use xlink:href="#m5c179bd2f6" x="201.726941" y="127.515586" style="fill: #4682b4; stroke: #4682b4"/>
     <use xlink:href="#m5c179bd2f6" x="205.006278" y="144.875362" style="fill: #4682b4; stroke: #4682b4"/>
     <use xlink:href="#m5c179bd2f6" x="208.285621" y="161.993186" style="fill: #4682b4; stroke: #4682b4"/>
     <use xlink:href="#m5c179bd2f6" x="211.564963" y="177.421668" style="fill: #4682b4; stroke: #4682b4"/>
     <use xlink:href="#m5c179bd2f6" x="214.8443" y="189.896128" style="fill: #4682b4; stroke: #4682b4"/>
     <use xlink:href="#m5c179bd2f6" x="218.123633" y="198.464689" style="fill: #4682b4; stroke: #4682b4"/>
     <use xlink:href="#m5c179bd2f6" x="221.402975" y="202.585935" style="fill: #4682b4; stroke: #4682b4"/>
     <use xlink:href="#m5c179bd2f6" x="224.682312" y="202.18402" style="fill: #4682b4; stroke: #4682b4"/>
     <use xlink:href="#m5c179bd2f6" x="227.961654" y="197.655685" style="fill: #4682b4; stroke: #4682b4"/>
     <use xlink:href="#m5c179bd2f6" x="231.240996" y="189.828252" style="fill: #4682b4; stroke: #4682b4"/>
     <use xlink:href="#m5c179bd2f6" x="234.520334" y="179.873009" style="fill: #4682b4; stroke: #4682b4"/>
     <use xlink:href="#m5c179bd2f6" x="237.799666" y="169.182991" style="fill: #4682b4; stroke: #4682b4"/>
     <use xlink:href="#m5c179bd2f6" x="241.079004" y="159.227748" style="fill: #4682b4; stroke: #4682b4"/>
     <use xlink:href="#m5c179bd2f6" x="244.358346" y="151.400315" style="fill: #4682b4; stroke: #4682b4"/>
     <use xlink:href="#m5c179bd2f6" x="247.637688" y="146.87198" style="fill: #4682b4; stroke: #4682b4"/>
     <use xlink:href="#m5c179bd2f6" x="250.917025" y="146.470065" style="fill: #4682b4; stroke: #4682b4"/>
     <use xlink:href="#m5c179bd2f6" x="254.196367" y="150.591311" style="fill: #4682b4; stroke: #4682b4"/>
     <use xlink:href="#m5c179bd2f6" x="257.4757" y="159.159872" style="fill: #4682b4; stroke: #4682b4"/>
     <use xlink:href="#m5c179bd2f6" x="260.755037" y="171.634332" style="fill: #4682b4; stroke: #4682b4"/>
     <use xlink:href="#m5c179bd2f6" x="264.034379" y="187.062814" style="fill: #4682b4; stroke: #4682b4"/>
     <use xlink:href="#m5c179bd2f6" x="267.313722" y="204.180638" style="fill: #4682b4; stroke: #4682b4"/>
     <use xlink:href="#m5c179bd2f6" x="270.593059" y="221.540414" style="fill: #4682b4; stroke: #4682b4"/>
     <use xlink:href="#m5c179bd2f6" x="273.872401" y="237.661134" style="fill: #4682b4; stroke: #4682b4"/>
     <use xlink:href="#m5c179bd2f6" x="277.151734" y="251.180466" style="fill: #4682b4; stroke: #4682b4"/>
     <use xlink:href="#m5c179bd2f6" x="280.431071" y="260.995178" style="fill: #4682b4; stroke: #4682b4"/>
     <use xlink:href="#m5c179bd2f6" x="283.710413" y="266.374313" style="fill: #4682b4; stroke: #4682b4"/>
     <use xlink:href="#m5c179bd2f6" x="286.989755" y="267.034015" style="fill: #4682b4; stroke: #4682b4"/>
     <use xlink:href="#m5c179bd2f6" x="290.269093" y="263.166111" style="fill: #4682b4; stroke: #4682b4"/>
     <use xlink:href="#m5c179bd2f6" x="293.548425" y="255.417266" style="fill: #4682b4; stroke: #4682b4"/>
     <use xlink:href="#m5c179bd2f6" x="296.827767" y="244.821047" style="fill: #4682b4; stroke: #4682b4"/>
     <use xlink:href="#m5c179bd2f6" x="300.107105" y="232.690105" style="fill: #4682b4; stroke: #4682b4"/>
     <use xlink:href="#m5c179bd2f6" x="303.386447" y="220.479168" style="fill: #4682b4; stroke: #4682b4"/>
     <use xlink:href="#m5c179bd2f6" x="306.665789" y="209.633556" style="fill: #4682b4; stroke: #4682b4"/>
     <use xlink:href="#m5c179bd2f6" x="309.945126" y="201.438563" style="fill: #4682b4; stroke: #4682b4"/>
     <use xlink:href="#m5c179bd2f6" x="313.224459" y="196.885363" style="fill: #4682b4; stroke: #4682b4"/>
     <use xlink:href="#m5c179bd2f6" x="316.503801" y="196.567504" style="fill: #4682b4; stroke: #4682b4"/>
     <use xlink:href="#m5c179bd2f6" x="319.783138" y="200.61851" style="fill: #4682b4; stroke: #4682b4"/>
     <use xlink:href="#m5c179bd2f6" x="323.06248" y="208.697161" style="fill: #4682b4; stroke: #4682b4"/>
     <use xlink:href="#m5c179bd2f6" x="326.341822" y="220.021881" style="fill: #4682b4; stroke: #4682b4"/>
     <use xlink:href="#m5c179bd2f6" x="329.621165" y="233.450802" style="fill: #4682b4; stroke: #4682b4"/>
     <use xlink:href="#m5c179bd2f6" x="332.900487" y="247.599037" style="fill: #4682b4; stroke: #4682b4"/>
     <use xlink:href="#m5c179bd2f6" x="336.17983" y="260.981548" style="fill: #4682b4; stroke: #4682b4"/>
     <use xlink:href="#m5c179bd2f6" x="339.459172" y="272.165542" style="fill: #4682b4; stroke: #4682b4"/>
     <use xlink:href="#m5c179bd2f6" x="342.738514" y="279.918268" style="fill: #4682b4; stroke: #4682b4"/>
     <use xlink:href="#m5c179bd2f6" x="346.017856" y="283.333769" style="fill: #4682b4; stroke: #4682b4"/>
     <use xlink:href="#m5c179bd2f6" x="349.297198" y="281.925732" style="fill: #4682b4; stroke: #4682b4"/>
     <use xlink:href="#m5c179bd2f6" x="352.576521" y="275.677026" style="fill: #4682b4; stroke: #4682b4"/>
     <use xlink:href="#m5c179bd2f6" x="355.855863" y="265.040445" style="fill: #4682b4; stroke: #4682b4"/>
     <use xlink:href="#m5c179bd2f6" x="359.135205" y="250.89103" style="fill: #4682b4; stroke: #4682b4"/>
     <use xlink:href="#m5c179bd2f6" x="362.414548" y="234.434469" style="fill: #4682b4; stroke: #4682b4"/>
     <use xlink:href="#m5c179bd2f6" x="365.69389" y="217.081323" style="fill: #4682b4; stroke: #4682b4"/>
     <use xlink:href="#m5c179bd2f6" x="368.973232" y="200.300011" style="fill: #4682b4; stroke: #4682b4"/>
     <use xlink:href="#m5c179bd2f6" x="372.252555" y="185.463912" style="fill: #4682b4; stroke: #4682b4"/>
     <use xlink:href="#m5c179bd2f6" x="375.531897" y="173.707857" style="fill: #4682b4; stroke: #4682b4"/>
     <use xlink:href="#m5c179bd2f6" x="378.811239" y="165.810233" style="fill: #4682b4; stroke: #4682b4"/>
     <use xlink:href="#m5c179bd2f6" x="382.090581" y="162.111043" style="fill: #4682b4; stroke: #4682b4"/>
     <use xlink:href="#m5c179bd2f6" x="385.369923" y="162.475927" style="fill: #4682b4; stroke: #4682b4"/>
     <use xlink:href="#m5c179bd2f6" x="388.649266" y="166.309136" style="fill: #4682b4; stroke: #4682b4"/>
     <use xlink:href="#m5c179bd2f6" x="391.928588" y="172.614297" style="fill: #4682b4; stroke: #4682b4"/>
     <use xlink:href="#m5c179bd2f6" x="395.207931" y="180.096882" style="fill: #4682b4; stroke: #4682b4"/>
     <use xlink:href="#m5c179bd2f6" x="398.487273" y="187.297088" style="fill: #4682b4; stroke: #4682b4"/>
    </g>
   </g>
   <g id="matplotlib.axis_1">
    <g id="xtick_1">
     <g id="line2d_1">
      <defs>
       <path id="m77812fc9e2" d="M 0 0 
L 0 3.5 
" style="stroke: #808080; stroke-width: 0.8"/>
      </defs>
      <g>
       <use xlink:href="#m77812fc9e2" x="73.832727" y="307.584" style="fill: #808080; stroke: #808080; stroke-width: 0.8"/>
      </g>
     </g>
     <g id="text_1">
      <!-- −1.00 -->
      <g style="fill: #808080" transform="translate(58.510071 322.182437) scale(0.1 -0.1)">
       <defs>
        <path id="DejaVuSans-2212" d="M 678 2272 
L 4684 2272 
L 4684 1741 
L 678 1741 
L 678 2272 
z
" transform="scale(0.015625)"/>
        <path id="DejaVuSans-31" d="M 794 531 
L 1825 531 
L 1825 4091 
L 703 3866 
L 703 4441 
L 1819 4666 
L 2450 4666 
L 2450 531 
L 3481 531 
L 3481 0 
L 794 0 
L 794 531 
z
" transform="scale(0.015625)"/>
        <path id="DejaVuSans-2e" d="M 684 794 
L 1344 794 
L 1344 0 
L 684 0 
L 684 794 
z
" transform="scale(0.015625)"/>
        <path id="DejaVuSans-30" d="M 2034 4250 
Q 1547 4250 1301 3770 
Q 1056 3291 1056 2328 
Q 1056 1369 1301 889 
Q 1547 409 2034 409 
Q 2525 409 2770 889 
Q 3016 1369 3016 2328 
Q 3016 3291 2770 3770 
Q 2525 4250 2034 4250 
z
M 2034 4750 
Q 2819 4750 3233 4129 
Q 3647 3509 3647 2328 
Q 3647 1150 3233 529 
Q 2819 -91 2034 -91 
Q 1250 -91 836 529 
Q 422 1150 422 2328 
Q 422 3509 836 4129 
Q 1250 4750 2034 4750 
z
" transform="scale(0.015625)"/>
       </defs>
       <use xlink:href="#DejaVuSans-2212"/>
       <use xlink:href="#DejaVuSans-31" x="83.789062"/>
       <use xlink:href="#DejaVuSans-2e" x="147.412109"/>
       <use xlink:href="#DejaVuSans-30" x="179.199219"/>
       <use xlink:href="#DejaVuSans-30" x="242.822266"/>
      </g>
     </g>
    </g>
    <g id="xtick_2">
     <g id="line2d_2">
      <g>
       <use xlink:href="#m77812fc9e2" x="114.414545" y="307.584" style="fill: #808080; stroke: #808080; stroke-width: 0.8"/>
      </g>
     </g>
     <g id="text_2">
      <!-- −0.75 -->
      <g style="fill: #808080" transform="translate(99.091889 322.182437) scale(0.1 -0.1)">
       <defs>
        <path id="DejaVuSans-37" d="M 525 4666 
L 3525 4666 
L 3525 4397 
L 1831 0 
L 1172 0 
L 2766 4134 
L 525 4134 
L 525 4666 
z
" transform="scale(0.015625)"/>
        <path id="DejaVuSans-35" d="M 691 4666 
L 3169 4666 
L 3169 4134 
L 1269 4134 
L 1269 2991 
Q 1406 3038 1543 3061 
Q 1681 3084 1819 3084 
Q 2600 3084 3056 2656 
Q 3513 2228 3513 1497 
Q 3513 744 3044 326 
Q 2575 -91 1722 -91 
Q 1428 -91 1123 -41 
Q 819 9 494 109 
L 494 744 
Q 775 591 1075 516 
Q 1375 441 1709 441 
Q 2250 441 2565 725 
Q 2881 1009 2881 1497 
Q 2881 1984 2565 2268 
Q 2250 2553 1709 2553 
Q 1456 2553 1204 2497 
Q 953 2441 691 2322 
L 691 4666 
z
" transform="scale(0.015625)"/>
       </defs>
       <use xlink:href="#DejaVuSans-2212"/>
       <use xlink:href="#DejaVuSans-30" x="83.789062"/>
       <use xlink:href="#DejaVuSans-2e" x="147.412109"/>
       <use xlink:href="#DejaVuSans-37" x="179.199219"/>
       <use xlink:href="#DejaVuSans-35" x="242.822266"/>
      </g>
     </g>
    </g>
    <g id="xtick_3">
     <g id="line2d_3">
      <g>
       <use xlink:href="#m77812fc9e2" x="154.996364" y="307.584" style="fill: #808080; stroke: #808080; stroke-width: 0.8"/>
      </g>
     </g>
     <g id="text_3">
      <!-- −0.50 -->
      <g style="fill: #808080" transform="translate(139.673707 322.182437) scale(0.1 -0.1)">
       <use xlink:href="#DejaVuSans-2212"/>
       <use xlink:href="#DejaVuSans-30" x="83.789062"/>
       <use xlink:href="#DejaVuSans-2e" x="147.412109"/>
       <use xlink:href="#DejaVuSans-35" x="179.199219"/>
       <use xlink:href="#DejaVuSans-30" x="242.822266"/>
      </g>
     </g>
    </g>
    <g id="xtick_4">
     <g id="line2d_4">
      <g>
       <use xlink:href="#m77812fc9e2" x="195.578182" y="307.584" style="fill: #808080; stroke: #808080; stroke-width: 0.8"/>
      </g>
     </g>
     <g id="text_4">
      <!-- −0.25 -->
      <g style="fill: #808080" transform="translate(180.255526 322.182437) scale(0.1 -0.1)">
       <defs>
        <path id="DejaVuSans-32" d="M 1228 531 
L 3431 531 
L 3431 0 
L 469 0 
L 469 531 
Q 828 903 1448 1529 
Q 2069 2156 2228 2338 
Q 2531 2678 2651 2914 
Q 2772 3150 2772 3378 
Q 2772 3750 2511 3984 
Q 2250 4219 1831 4219 
Q 1534 4219 1204 4116 
Q 875 4013 500 3803 
L 500 4441 
Q 881 4594 1212 4672 
Q 1544 4750 1819 4750 
Q 2544 4750 2975 4387 
Q 3406 4025 3406 3419 
Q 3406 3131 3298 2873 
Q 3191 2616 2906 2266 
Q 2828 2175 2409 1742 
Q 1991 1309 1228 531 
z
" transform="scale(0.015625)"/>
       </defs>
       <use xlink:href="#DejaVuSans-2212"/>
       <use xlink:href="#DejaVuSans-30" x="83.789062"/>
       <use xlink:href="#DejaVuSans-2e" x="147.412109"/>
       <use xlink:href="#DejaVuSans-32" x="179.199219"/>
       <use xlink:href="#DejaVuSans-35" x="242.822266"/>
      </g>
     </g>
    </g>
    <g id="xtick_5">
     <g id="line2d_5">
      <g>
       <use xlink:href="#m77812fc9e2" x="236.16" y="307.584" style="fill: #808080; stroke: #808080; stroke-width: 0.8"/>
      </g>
     </g>
     <g id="text_5">
      <!-- 0.00 -->
      <g style="fill: #808080" transform="translate(225.027187 322.182437) scale(0.1 -0.1)">
       <use xlink:href="#DejaVuSans-30"/>
       <use xlink:href="#DejaVuSans-2e" x="63.623047"/>
       <use xlink:href="#DejaVuSans-30" x="95.410156"/>
       <use xlink:href="#DejaVuSans-30" x="159.033203"/>
      </g>
     </g>
    </g>
    <g id="xtick_6">
     <g id="line2d_6">
      <g>
       <use xlink:href="#m77812fc9e2" x="276.741818" y="307.584" style="fill: #808080; stroke: #808080; stroke-width: 0.8"/>
      </g>
     </g>
     <g id="text_6">
      <!-- 0.25 -->
      <g style="fill: #808080" transform="translate(265.609006 322.182437) scale(0.1 -0.1)">
       <use xlink:href="#DejaVuSans-30"/>
       <use xlink:href="#DejaVuSans-2e" x="63.623047"/>
       <use xlink:href="#DejaVuSans-32" x="95.410156"/>
       <use xlink:href="#DejaVuSans-35" x="159.033203"/>
      </g>
     </g>
    </g>
    <g id="xtick_7">
     <g id="line2d_7">
      <g>
       <use xlink:href="#m77812fc9e2" x="317.323636" y="307.584" style="fill: #808080; stroke: #808080; stroke-width: 0.8"/>
      </g>
     </g>
     <g id="text_7">
      <!-- 0.50 -->
      <g style="fill: #808080" transform="translate(306.190824 322.182437) scale(0.1 -0.1)">
       <use xlink:href="#DejaVuSans-30"/>
       <use xlink:href="#DejaVuSans-2e" x="63.623047"/>
       <use xlink:href="#DejaVuSans-35" x="95.410156"/>
       <use xlink:href="#DejaVuSans-30" x="159.033203"/>
      </g>
     </g>
    </g>
    <g id="xtick_8">
     <g id="line2d_8">
      <g>
       <use xlink:href="#m77812fc9e2" x="357.905455" y="307.584" style="fill: #808080; stroke: #808080; stroke-width: 0.8"/>
      </g>
     </g>
     <g id="text_8">
      <!-- 0.75 -->
      <g style="fill: #808080" transform="translate(346.772642 322.182437) scale(0.1 -0.1)">
       <use xlink:href="#DejaVuSans-30"/>
       <use xlink:href="#DejaVuSans-2e" x="63.623047"/>
       <use xlink:href="#DejaVuSans-37" x="95.410156"/>
       <use xlink:href="#DejaVuSans-35" x="159.033203"/>
      </g>
     </g>
    </g>
    <g id="xtick_9">
     <g id="line2d_9">
      <g>
       <use xlink:href="#m77812fc9e2" x="398.487273" y="307.584" style="fill: #808080; stroke: #808080; stroke-width: 0.8"/>
      </g>
     </g>
     <g id="text_9">
      <!-- 1.00 -->
      <g style="fill: #808080" transform="translate(387.35446 322.182437) scale(0.1 -0.1)">
       <use xlink:href="#DejaVuSans-31"/>
       <use xlink:href="#DejaVuSans-2e" x="63.623047"/>
       <use xlink:href="#DejaVuSans-30" x="95.410156"/>
       <use xlink:href="#DejaVuSans-30" x="159.033203"/>
      </g>
     </g>
    </g>
   </g>
   <g id="matplotlib.axis_2">
    <g id="ytick_1">
     <g id="line2d_10">
      <defs>
       <path id="m50a8ee3b43" d="M 0 0 
L -3.5 0 
" style="stroke: #808080; stroke-width: 0.8"/>
      </defs>
      <g>
       <use xlink:href="#m50a8ee3b43" x="57.6" y="280.9728" style="fill: #808080; stroke: #808080; stroke-width: 0.8"/>
      </g>
     </g>
     <g id="text_10">
      <!-- −0.6 -->
      <g style="fill: #808080" transform="translate(26.317187 284.772019) scale(0.1 -0.1)">
       <defs>
        <path id="DejaVuSans-36" d="M 2113 2584 
Q 1688 2584 1439 2293 
Q 1191 2003 1191 1497 
Q 1191 994 1439 701 
Q 1688 409 2113 409 
Q 2538 409 2786 701 
Q 3034 994 3034 1497 
Q 3034 2003 2786 2293 
Q 2538 2584 2113 2584 
z
M 3366 4563 
L 3366 3988 
Q 3128 4100 2886 4159 
Q 2644 4219 2406 4219 
Q 1781 4219 1451 3797 
Q 1122 3375 1075 2522 
Q 1259 2794 1537 2939 
Q 1816 3084 2150 3084 
Q 2853 3084 3261 2657 
Q 3669 2231 3669 1497 
Q 3669 778 3244 343 
Q 2819 -91 2113 -91 
Q 1303 -91 875 529 
Q 447 1150 447 2328 
Q 447 3434 972 4092 
Q 1497 4750 2381 4750 
Q 2619 4750 2861 4703 
Q 3103 4656 3366 4563 
z
" transform="scale(0.015625)"/>
       </defs>
       <use xlink:href="#DejaVuSans-2212"/>
       <use xlink:href="#DejaVuSans-30" x="83.789062"/>
       <use xlink:href="#DejaVuSans-2e" x="147.412109"/>
       <use xlink:href="#DejaVuSans-36" x="179.199219"/>
      </g>
     </g>
    </g>
    <g id="ytick_2">
     <g id="line2d_11">
      <g>
       <use xlink:href="#m50a8ee3b43" x="57.6" y="245.4912" style="fill: #808080; stroke: #808080; stroke-width: 0.8"/>
      </g>
     </g>
     <g id="text_11">
      <!-- −0.4 -->
      <g style="fill: #808080" transform="translate(26.317187 249.290419) scale(0.1 -0.1)">
       <defs>
        <path id="DejaVuSans-34" d="M 2419 4116 
L 825 1625 
L 2419 1625 
L 2419 4116 
z
M 2253 4666 
L 3047 4666 
L 3047 1625 
L 3713 1625 
L 3713 1100 
L 3047 1100 
L 3047 0 
L 2419 0 
L 2419 1100 
L 313 1100 
L 313 1709 
L 2253 4666 
z
" transform="scale(0.015625)"/>
       </defs>
       <use xlink:href="#DejaVuSans-2212"/>
       <use xlink:href="#DejaVuSans-30" x="83.789062"/>
       <use xlink:href="#DejaVuSans-2e" x="147.412109"/>
       <use xlink:href="#DejaVuSans-34" x="179.199219"/>
      </g>
     </g>
    </g>
    <g id="ytick_3">
     <g id="line2d_12">
      <g>
       <use xlink:href="#m50a8ee3b43" x="57.6" y="210.0096" style="fill: #808080; stroke: #808080; stroke-width: 0.8"/>
      </g>
     </g>
     <g id="text_12">
      <!-- −0.2 -->
      <g style="fill: #808080" transform="translate(26.317187 213.808819) scale(0.1 -0.1)">
       <use xlink:href="#DejaVuSans-2212"/>
       <use xlink:href="#DejaVuSans-30" x="83.789062"/>
       <use xlink:href="#DejaVuSans-2e" x="147.412109"/>
       <use xlink:href="#DejaVuSans-32" x="179.199219"/>
      </g>
     </g>
    </g>
    <g id="ytick_4">
     <g id="line2d_13">
      <g>
       <use xlink:href="#m50a8ee3b43" x="57.6" y="174.528" style="fill: #808080; stroke: #808080; stroke-width: 0.8"/>
      </g>
     </g>
     <g id="text_13">
      <!-- 0.0 -->
      <g style="fill: #808080" transform="translate(34.696875 178.327219) scale(0.1 -0.1)">
       <use xlink:href="#DejaVuSans-30"/>
       <use xlink:href="#DejaVuSans-2e" x="63.623047"/>
       <use xlink:href="#DejaVuSans-30" x="95.410156"/>
      </g>
     </g>
    </g>
    <g id="ytick_5">
     <g id="line2d_14">
      <g>
       <use xlink:href="#m50a8ee3b43" x="57.6" y="139.0464" style="fill: #808080; stroke: #808080; stroke-width: 0.8"/>
      </g>
     </g>
     <g id="text_14">
      <!-- 0.2 -->
      <g style="fill: #808080" transform="translate(34.696875 142.845619) scale(0.1 -0.1)">
       <use xlink:href="#DejaVuSans-30"/>
       <use xlink:href="#DejaVuSans-2e" x="63.623047"/>
       <use xlink:href="#DejaVuSans-32" x="95.410156"/>
      </g>
     </g>
    </g>
    <g id="ytick_6">
     <g id="line2d_15">
      <g>
       <use xlink:href="#m50a8ee3b43" x="57.6" y="103.5648" style="fill: #808080; stroke: #808080; stroke-width: 0.8"/>
      </g>
     </g>
     <g id="text_15">
      <!-- 0.4 -->
      <g style="fill: #808080" transform="translate(34.696875 107.364019) scale(0.1 -0.1)">
       <use xlink:href="#DejaVuSans-30"/>
       <use xlink:href="#DejaVuSans-2e" x="63.623047"/>
       <use xlink:href="#DejaVuSans-34" x="95.410156"/>
      </g>
     </g>
    </g>
    <g id="ytick_7">
     <g id="line2d_16">
      <g>
       <use xlink:href="#m50a8ee3b43" x="57.6" y="68.0832" style="fill: #808080; stroke: #808080; stroke-width: 0.8"/>
      </g>
     </g>
     <g id="text_16">
      <!-- 0.6 -->
      <g style="fill: #808080" transform="translate(34.696875 71.882419) scale(0.1 -0.1)">
       <use xlink:href="#DejaVuSans-30"/>
       <use xlink:href="#DejaVuSans-2e" x="63.623047"/>
       <use xlink:href="#DejaVuSans-36" x="95.410156"/>
      </g>
     </g>
    </g>
   </g>
   <g id="patch_3">
    <path d="M 57.6 307.584 
L 57.6 41.472 
" style="fill: none; stroke: #808080; stroke-width: 0.8; stroke-linejoin: miter; stroke-linecap: square"/>
   </g>
   <g id="patch_4">
    <path d="M 414.72 307.584 
L 414.72 41.472 
" style="fill: none; stroke: #808080; stroke-width: 0.8; stroke-linejoin: miter; stroke-linecap: square"/>
   </g>
   <g id="patch_5">
    <path d="M 57.6 307.584 
L 414.72 307.584 
" style="fill: none; stroke: #808080; stroke-width: 0.8; stroke-linejoin: miter; stroke-linecap: square"/>
   </g>
   <g id="patch_6">
    <path d="M 57.6 41.472 
L 414.72 41.472 
" style="fill: none; stroke: #808080; stroke-width: 0.8; stroke-linejoin: miter; stroke-linecap: square"/>
   </g>
  </g>
 </g>
 <defs>
  <clipPath id="pa308dbfcea">
   <rect x="57.6" y="41.472" width="357.12" height="266.112"/>
  </clipPath>
 </defs>
</svg>
